<?xml version="1.0" encoding="UTF-8" standalone="no"?>
<!-- Generator: Adobe Illustrator 16.0.0, SVG Export Plug-In . SVG Version: 6.00 Build 0)  -->

<svg
   xmlns:dc="http://purl.org/dc/elements/1.1/"
   xmlns:cc="http://creativecommons.org/ns#"
   xmlns:rdf="http://www.w3.org/1999/02/22-rdf-syntax-ns#"
   xmlns:svg="http://www.w3.org/2000/svg"
   xmlns="http://www.w3.org/2000/svg"
   xmlns:sodipodi="http://sodipodi.sourceforge.net/DTD/sodipodi-0.dtd"
   xmlns:inkscape="http://www.inkscape.org/namespaces/inkscape"
   version="1.1"
   id="Capa_1"
   x="0px"
   y="0px"
   width="405.27249"
   height="294.89651"
   viewBox="0 0 405.27249 294.89651"
   xml:space="preserve"
   sodipodi:docname="check.svg"
   inkscape:version="0.92.5 (2060ec1f9f, 2020-04-08)"><metadata
   id="metadata41"><rdf:RDF><cc:Work
       rdf:about=""><dc:format>image/svg+xml</dc:format><dc:type
         rdf:resource="http://purl.org/dc/dcmitype/StillImage" /></cc:Work></rdf:RDF></metadata><defs
   id="defs39" /><sodipodi:namedview
   pagecolor="#ffffff"
   bordercolor="#666666"
   borderopacity="1"
   objecttolerance="10"
   gridtolerance="10"
   guidetolerance="10"
   inkscape:pageopacity="0"
   inkscape:pageshadow="2"
   inkscape:window-width="1301"
   inkscape:window-height="983"
   id="namedview37"
   showgrid="false"
   inkscape:zoom="0.58232495"
   inkscape:cx="202.6365"
   inkscape:cy="147.44825"
   inkscape:window-x="0"
   inkscape:window-y="26"
   inkscape:window-maximized="0"
   inkscape:current-layer="g4" />
<g
   id="g4"
   transform="translate(5e-4,-55.18775)">
	<path
   d="M 393.401,124.425 179.603,338.208 c -15.832,15.835 -41.514,15.835 -57.361,0 L 11.878,227.836 c -15.838,-15.835 -15.838,-41.52 0,-57.358 15.841,-15.841 41.521,-15.841 57.355,-0.006 l 81.698,81.699 185.106,-185.107 c 15.841,-15.841 41.523,-15.829 57.358,0 15.835,15.838 15.835,41.514 0.006,57.361 z"
   id="path2"
   style="fill:#80ff01;fill-opacity:1"
   inkscape:connector-curvature="0" />
</g>
<g
   id="g6"
   transform="translate(5e-4,-55.18775)">
</g>
<g
   id="g8"
   transform="translate(5e-4,-55.18775)">
</g>
<g
   id="g10"
   transform="translate(5e-4,-55.18775)">
</g>
<g
   id="g12"
   transform="translate(5e-4,-55.18775)">
</g>
<g
   id="g14"
   transform="translate(5e-4,-55.18775)">
</g>
<g
   id="g16"
   transform="translate(5e-4,-55.18775)">
</g>
<g
   id="g18"
   transform="translate(5e-4,-55.18775)">
</g>
<g
   id="g20"
   transform="translate(5e-4,-55.18775)">
</g>
<g
   id="g22"
   transform="translate(5e-4,-55.18775)">
</g>
<g
   id="g24"
   transform="translate(5e-4,-55.18775)">
</g>
<g
   id="g26"
   transform="translate(5e-4,-55.18775)">
</g>
<g
   id="g28"
   transform="translate(5e-4,-55.18775)">
</g>
<g
   id="g30"
   transform="translate(5e-4,-55.18775)">
</g>
<g
   id="g32"
   transform="translate(5e-4,-55.18775)">
</g>
<g
   id="g34"
   transform="translate(5e-4,-55.18775)">
</g>
</svg>